<svg width="15" height="15" viewBox="0 0 15 15" fill="none" xmlns="http://www.w3.org/2000/svg">
<rect width="15" height="15" rx="3" fill="#FFB770"/>
<path d="M5.91978 9.2539L11.4006 3.21381C11.5299 3.07127 11.6808 3 11.8533 3C12.0257 3 12.1766 3.07127 12.306 3.21381C12.4353 3.35635 12.5 3.52561 12.5 3.7216C12.5 3.91759 12.4353 4.08686 12.306 4.2294L6.37247 10.7862C6.24313 10.9287 6.09223 11 5.91978 11C5.74732 11 5.59642 10.9287 5.46708 10.7862L2.68625 7.7216C2.55691 7.57906 2.49493 7.4098 2.50032 7.21381C2.50571 7.01782 2.57308 6.84855 2.70242 6.70601C2.83176 6.56347 2.98535 6.4922 3.1632 6.4922C3.34104 6.4922 3.49463 6.56347 3.62397 6.70601L5.91978 9.2539Z" fill="#35273A"/>
</svg>
